<?xml version="1.0" encoding="UTF-8" standalone="no"?>
<!-- Created with Inkscape (http://www.inkscape.org/) -->

<svg
   xmlns:dc="http://purl.org/dc/elements/1.1/"
   xmlns:cc="http://creativecommons.org/ns#"
   xmlns:rdf="http://www.w3.org/1999/02/22-rdf-syntax-ns#"
   xmlns:svg="http://www.w3.org/2000/svg"
   xmlns="http://www.w3.org/2000/svg"
   xmlns:sodipodi="http://sodipodi.sourceforge.net/DTD/sodipodi-0.dtd"
   xmlns:inkscape="http://www.inkscape.org/namespaces/inkscape"
   version="1.1"
   id="svg2"
   width="368.47885"
   height="481.96994"
   viewBox="0 0 368.47885 481.96994"
   sodipodi:docname="ajax.svg"
   inkscape:version="0.92.3 (2405546, 2018-03-11)">
  <metadata
     id="metadata8">
    <rdf:RDF>
      <cc:Work
         rdf:about="">
        <dc:format>image/svg+xml</dc:format>
        <dc:type
           rdf:resource="http://purl.org/dc/dcmitype/StillImage" />
        <dc:title></dc:title>
      </cc:Work>
    </rdf:RDF>
  </metadata>
  <defs
     id="defs6" />
  <sodipodi:namedview
     pagecolor="#ffffff"
     bordercolor="#666666"
     borderopacity="1"
     objecttolerance="10"
     gridtolerance="10"
     guidetolerance="10"
     inkscape:pageopacity="0"
     inkscape:pageshadow="2"
     inkscape:window-width="1920"
     inkscape:window-height="1001"
     id="namedview4"
     showgrid="false"
     inkscape:zoom="0.25463441"
     inkscape:cx="-1467.3169"
     inkscape:cy="93.407389"
     inkscape:window-x="-9"
     inkscape:window-y="-9"
     inkscape:window-maximized="1"
     inkscape:current-layer="svg2" />
  <g
     id="g831"
     transform="translate(-478.3077,-41.957257)">
    <path
       style="fill:#000000;fill-opacity:1;stroke:none;stroke-width:1.27999997"
       d="M 640.2277,523.32875 C 599.63609,521.5924 580.01685,515.03912 562.0296,497.20879 546.48955,481.80433 540.70869,465.805 540.50978,437.64988 l -0.12212,-17.28 h 34.95108 34.95108 l 0.4213,13.44 c 0.68288,21.78528 5.72988,32.30879 18.24237,38.03718 6.83901,3.13101 7.25083,3.16145 35.3369,2.61233 33.01337,-0.64546 37.33527,-1.64608 45.53561,-10.54239 9.88832,-10.72755 9.62031,-7.83154 10.10195,-109.16277 0.39186,-82.44163 0.25244,-90.00283 -1.67318,-90.74176 -1.50809,-0.57871 -5.95512,3.0364 -15.76479,12.81565 -7.51527,7.49197 -14.30309,13.62176 -15.08404,13.62176 -1.9078,0 -32.6688,-30.72842 -32.19223,-32.15813 0.71169,-2.1351 53.14976,-55.57647 74.4679,-75.89273 l 21.37545,-20.37087 47.61797,47.25087 c 26.18989,25.98798 47.83515,47.7485 48.10058,48.35672 0.68207,1.56279 -30.75214,32.81414 -33.0061,32.81414 -1.02113,0 -7.70181,-6.12798 -14.84595,-13.61775 -7.84213,-8.22149 -13.70789,-13.37852 -14.80261,-13.01404 -1.53385,0.51068 -1.92877,15.37963 -2.56295,96.49775 -0.83284,106.52779 -0.8103,106.2342 -9.53371,124.22273 -7.81406,16.11342 -24.76957,29.13157 -44.70566,34.32426 -16.88594,4.39824 -49.53481,6.07243 -87.09093,4.46592 z M 526.37296,357.00673 C 499.93707,330.6837 478.3077,308.67031 478.3077,308.08808 c 0,-1.7264 30.94105,-32.9982 32.64918,-32.9982 0.86203,0 7.92365,6.048 15.69249,13.44 7.76885,7.392 14.69997,13.44 15.4025,13.44 0.83261,0 1.48863,-32.64318 1.88425,-93.76 0.57794,-89.28271 0.73523,-94.34067 3.29392,-105.91999 3.78988,-17.15099 9.78818,-28.62154 19.92651,-38.10546 18.14356,-16.972416 40.15898,-22.239167 92.91115,-22.227152 55.31226,0.01254 82.78429,6.826214 102.51626,25.426082 15.54473,14.65287 21.63752,30.701622 22.60639,59.54653 l 0.63415,18.88 h -35.3584 -35.3584 v -11.92768 c 0,-24.31143 -8.23968,-38.202368 -24.86778,-41.92357 -10.42611,-2.33327 -53.41514,-0.90746 -61.48719,2.039332 -8.6391,3.15379 -17.32386,12.062808 -20.56102,21.091918 -2.42125,6.75338 -2.52401,10.70087 -2.52401,96.95918 0,79.5449 0.22415,89.91928 1.94287,89.91999 1.06857,4.5e-4 7.97028,-6.04718 15.33713,-13.43918 7.36685,-7.392 13.98886,-13.44 14.7156,-13.44 0.72673,0 8.65445,7.34943 17.61714,16.33205 l 16.29579,16.33206 -48.56902,48.5564 -48.56901,48.5564 z"
       id="path833"
       inkscape:connector-curvature="0" />
  </g>
  <path
     style="fill:#000000;stroke-width:1.27999997"
     d=""
     id="path819"
     inkscape:connector-curvature="0" />
  <path
     style="fill:#000000;stroke-width:1.27999997"
     d=""
     id="path817"
     inkscape:connector-curvature="0" />
</svg>
