<?xml version="1.0" encoding="UTF-8" standalone="no"?>
<!-- Created with Inkscape (http://www.inkscape.org/) -->

<svg
   xmlns:dc="http://purl.org/dc/elements/1.1/"
   xmlns:cc="http://creativecommons.org/ns#"
   xmlns:rdf="http://www.w3.org/1999/02/22-rdf-syntax-ns#"
   xmlns:svg="http://www.w3.org/2000/svg"
   xmlns="http://www.w3.org/2000/svg"
   xmlns:sodipodi="http://sodipodi.sourceforge.net/DTD/sodipodi-0.dtd"
   xmlns:inkscape="http://www.inkscape.org/namespaces/inkscape"
   version="1.1"
   id="svg2"
   width="499.84222"
   height="501.48727"
   viewBox="0 0 499.84222 501.48727"
   sodipodi:docname="bootstrap.svg"
   inkscape:version="0.92.3 (2405546, 2018-03-11)">
  <metadata
     id="metadata8">
    <rdf:RDF>
      <cc:Work
         rdf:about="">
        <dc:format>image/svg+xml</dc:format>
        <dc:type
           rdf:resource="http://purl.org/dc/dcmitype/StillImage" />
        <dc:title></dc:title>
      </cc:Work>
    </rdf:RDF>
  </metadata>
  <defs
     id="defs6" />
  <sodipodi:namedview
     pagecolor="#ffffff"
     bordercolor="#666666"
     borderopacity="1"
     objecttolerance="10"
     gridtolerance="10"
     guidetolerance="10"
     inkscape:pageopacity="0"
     inkscape:pageshadow="2"
     inkscape:window-width="1920"
     inkscape:window-height="1001"
     id="namedview4"
     showgrid="false"
     inkscape:measure-start="0,0"
     inkscape:measure-end="0,0"
     inkscape:zoom="1.2136524"
     inkscape:cx="377.48964"
     inkscape:cy="243.06043"
     inkscape:window-x="-9"
     inkscape:window-y="-9"
     inkscape:window-maximized="1"
     inkscape:current-layer="svg2" />
  <path
     style="fill:#000000"
     d="M 69.486588,501.16851 C 41.726378,497.24377 17.116788,477.95508 6.0971178,451.48465 -0.25971218,436.21486 -0.01540218,444.23695 0.00639782,251.49281 0.01899782,140.5165 0.39150782,73.809828 1.0235278,69.373793 5.5150778,37.848605 27.072718,13.032048 58.523818,3.1810717 l 8.96277,-2.80727901 175.500002,-0.301421 c 121.9937,-0.209524 178.39635,0.03075 185,0.788082 33.55314,3.84802101 59.86924,26.47290031 69.22294,59.51333931 l 2.2648,8 0.2983,177.500007 c 0.2042,121.46791 -0.038,180.07026 -0.7667,185.64215 -3.5336,27.01297 -20.2279,50.20863 -44.5193,61.85682 -18.20271,8.72851 1.0007,7.95875 -202.00004,8.09716 -99,0.0675 -181.350002,-0.0681 -183.000002,-0.30142 z M 299.98659,404.52103 c 11.74866,-1.99919 17.77616,-3.33162 25.5,-5.63698 32.30556,-9.64234 51.50428,-28.47336 58.63324,-57.51025 2.92833,-11.92735 3.17871,-33.26608 0.52495,-44.73996 -5.94471,-25.70281 -21.10082,-44.1108 -43.93041,-53.35609 l -7.77222,-3.14751 5.49211,-2.68703 c 16.78131,-8.21033 26.92235,-20.17752 32.70527,-38.59463 2.05679,-6.55035 2.33317,-9.32987 2.23473,-22.47478 -0.18647,-24.90065 -5.34885,-38.75266 -19.76957,-53.04688 -12.14096,-12.03447 -27.41237,-19.11187 -50.59447,-23.447561 -19.20001,-3.59093 -29.87564,-4.00557 -103.12958,-4.00557 H 127.98659 V 251.44177 407.00974 l 81.25,-0.43608 c 68.81498,-0.36934 82.70394,-0.68349 90.75,-2.05263 z m -91,-93.06249 V 270.8738 h 28.54216 c 31.01384,0 39.51474,0.96819 48.50619,5.5245 14.17921,7.18515 19.57092,17.94194 18.74566,37.39872 -0.64603,15.23114 -4.8129,23.67192 -14.87261,30.12721 -10.50781,6.74285 -13.94817,7.28319 -49.1714,7.7228 l -31.75,0.39625 z m 0,-128.71435 v -33.12961 l 27.75,0.50917 c 32.31663,0.59295 37.35833,1.57232 45.64523,8.86674 5.69182,5.01015 8.20974,9.70158 9.49706,17.69513 2.3633,14.67477 -2.7194,27.48632 -13.38412,33.73626 -7.55085,4.4251 -15.52558,5.41552 -43.75817,5.43456 l -25.75,0.0174 z"
     id="path817"
     inkscape:connector-curvature="0" />
</svg>
