<?xml version="1.0" encoding="UTF-8" standalone="no"?>
<!-- Generator: Adobe Illustrator 19.0.0, SVG Export Plug-In . SVG Version: 6.00 Build 0)  -->

<svg
   xmlns:dc="http://purl.org/dc/elements/1.1/"
   xmlns:cc="http://creativecommons.org/ns#"
   xmlns:rdf="http://www.w3.org/1999/02/22-rdf-syntax-ns#"
   xmlns:svg="http://www.w3.org/2000/svg"
   xmlns="http://www.w3.org/2000/svg"
   xmlns:sodipodi="http://sodipodi.sourceforge.net/DTD/sodipodi-0.dtd"
   xmlns:inkscape="http://www.inkscape.org/namespaces/inkscape"
   version="1.1"
   id="Layer_1"
   x="0px"
   y="0px"
   viewBox="0 0 96 96"
   style="enable-background:new 0 0 96 96;"
   xml:space="preserve"
   sodipodi:docname="css.svg"
   inkscape:version="0.92.3 (2405546, 2018-03-11)"><metadata
   id="metadata11"><rdf:RDF><cc:Work
       rdf:about=""><dc:format>image/svg+xml</dc:format><dc:type
         rdf:resource="http://purl.org/dc/dcmitype/StillImage" /></cc:Work></rdf:RDF></metadata><defs
   id="defs9" /><sodipodi:namedview
   pagecolor="#ffffff"
   bordercolor="#666666"
   borderopacity="1"
   objecttolerance="10"
   gridtolerance="10"
   guidetolerance="10"
   inkscape:pageopacity="0"
   inkscape:pageshadow="2"
   inkscape:window-width="1920"
   inkscape:window-height="1001"
   id="namedview7"
   showgrid="false"
   inkscape:zoom="6.9532167"
   inkscape:cx="-14.078248"
   inkscape:cy="54.900478"
   inkscape:window-x="-9"
   inkscape:window-y="-9"
   inkscape:window-maximized="1"
   inkscape:current-layer="XMLID_2_" />
<style
   type="text/css"
   id="style2">
	.st0{fill:#333333;}
</style>
<g
   id="XMLID_2_"
   transform="matrix(1.7256288,0,0,1.9082502,-34.938048,-43.775787)">
	<polygon
   id="XMLID_4_"
   class="st0"
   points="22.7,53.5 31.9,53.5 31,58.1 44.2,63.1 59.3,58.1 61.4,47.5 23.8,47.5 25.6,38.3 63.2,38.3 64.4,32.4 26.8,32.4 28.7,23.1 75.5,23.1 67.2,64.6 42.2,72.9 20.5,64.6 "
   style="fill:#333333" />
<path
   style="fill:#000000;stroke-width:0.14381833"
   d="M 19.183957,87.376563 C 1.5080578,79.89775 0.59991232,79.495823 0.60491481,79.153852 0.60780757,78.956102 1.4321764,74.23167 2.4368455,68.655114 l 1.826671,-10.139192 7.8832875,-0.03719 7.883288,-0.03719 -0.07988,0.396734 c -0.256364,1.273286 -1.3817,7.843901 -1.3817,8.067478 0,0.218568 2.087432,1.141771 11.385298,5.035343 l 11.385299,4.767704 13.027863,-4.766689 c 7.165324,-2.62168 13.0398,-4.774682 13.054392,-4.784452 0.03026,-0.02026 3.640837,-20.117991 3.640837,-20.266174 0,-0.05322 -14.598325,-0.09676 -32.440725,-0.09676 -30.8264622,0 -32.4372738,-0.01252 -32.3713883,-0.251682 0.038135,-0.138425 0.7374197,-4.053879 1.5539668,-8.701009 L 9.2886867,29.392711 H 41.757446 c 22.859578,0 32.46876,-0.0453 32.46876,-0.153081 0,-0.08419 0.453027,-2.608604 1.006728,-5.609799 0.553701,-3.001197 1.006728,-5.488681 1.006728,-5.527744 0,-0.03906 -14.593965,-0.07102 -32.431033,-0.07102 -17.837068,0 -32.429544,-0.01618 -32.427723,-0.03596 0.0018,-0.01977 0.734852,-3.983768 1.628961,-8.8088726 L 14.635518,0.41331737 54.9296,0.37710959 c 26.051682,-0.0234097 40.294082,0.0132637 40.294082,0.10375512 0,0.41744739 -14.25697,78.89069529 -14.346675,78.96700529 -0.116598,0.09919 -42.939482,15.82056 -43.044534,15.802747 -0.03532,-0.006 -8.42715,-3.549313 -18.648516,-7.874054 z"
   id="path13"
   inkscape:connector-curvature="0"
   transform="matrix(0.5794989,0,0,0.5240403,20.246561,22.940276)" /></g>
</svg>