<?xml version="1.0" encoding="UTF-8" standalone="no"?>
<!-- Created with Inkscape (http://www.inkscape.org/) -->

<svg
   xmlns:dc="http://purl.org/dc/elements/1.1/"
   xmlns:cc="http://creativecommons.org/ns#"
   xmlns:rdf="http://www.w3.org/1999/02/22-rdf-syntax-ns#"
   xmlns:svg="http://www.w3.org/2000/svg"
   xmlns="http://www.w3.org/2000/svg"
   xmlns:sodipodi="http://sodipodi.sourceforge.net/DTD/sodipodi-0.dtd"
   xmlns:inkscape="http://www.inkscape.org/namespaces/inkscape"
   version="1.1"
   id="svg2"
   width="1024.0537"
   height="1024.0006"
   viewBox="0 0 1024.0537 1024.0006"
   sodipodi:docname="filezilla.svg"
   inkscape:version="0.92.3 (2405546, 2018-03-11)">
  <metadata
     id="metadata8">
    <rdf:RDF>
      <cc:Work
         rdf:about="">
        <dc:format>image/svg+xml</dc:format>
        <dc:type
           rdf:resource="http://purl.org/dc/dcmitype/StillImage" />
        <dc:title></dc:title>
      </cc:Work>
    </rdf:RDF>
  </metadata>
  <defs
     id="defs6" />
  <sodipodi:namedview
     pagecolor="#ffffff"
     bordercolor="#666666"
     borderopacity="1"
     objecttolerance="10"
     gridtolerance="10"
     guidetolerance="10"
     inkscape:pageopacity="0"
     inkscape:pageshadow="2"
     inkscape:window-width="1920"
     inkscape:window-height="1001"
     id="namedview4"
     showgrid="false"
     inkscape:zoom="0.23046875"
     inkscape:cx="-245.13653"
     inkscape:cy="525.0169"
     inkscape:window-x="-9"
     inkscape:window-y="-9"
     inkscape:window-maximized="1"
     inkscape:current-layer="svg2" />
  <path
     style="fill:#000000"
     d="m 34.016045,1020.5381 c 0,-14.1176 -16.4199,-30.53749 -30.5375002,-30.53749 h -3.4625 v -22.38332 c 0,-22.36705 0,-22.38381 2.25,-22.98634 1.2375,-0.33164 3.15,-0.60948 4.25,-0.61742 1.1,-0.008 4.7100002,-1.29654 8.0223002,-2.86354 7.5824,-3.58713 14.5915,-11.1716 17.5103,-18.9477 2.9418,-7.8376 2.5034,-19.54308 -1.0001,-26.70163 -4.9266,-10.06659 -15.6779,-17.96005 -26.1520002,-19.20055 l -4.8805,-0.57803 v -22.24717 -22.24716 l 4.75,-0.70785 c 10.6667002,-1.58958 20.8030002,-8.96221 26.0859002,-18.9736 2.3726,-4.49623 2.6614,-6.13453 2.6518,-15.04564 -0.01,-8.59597 -0.3568,-10.70202 -2.4754,-15 -4.8921,-9.9246 -15.5382,-17.67472 -26.2623002,-19.11827 l -4.75,-0.63939 v -22.24234 -22.24234 l 4.8764,-0.64687 c 6.8016002,-0.90228 16.4187002,-5.96938 20.5994002,-10.85356 6.4998,-7.59356 8.0255,-12.02162 8.0134,-23.25723 -0.01,-8.89498 -0.3064,-10.56265 -2.6867,-15.09177 -5.2498,-9.98956 -15.0409,-16.8555 -27.0525002,-18.97051 l -3.75,-0.6603 v -22.38871 -22.38871 h 3.4625 c 10.6731002,0 24.2078002,-10.15756 28.3748002,-21.29489 2.8571,-7.6361 2.9005,-17.65802 0.1089,-25.11923 -3.7609,-10.05182 -14.6494,-19.44508 -24.4462002,-21.08923 -8.2208,-1.37963 -7.5,0.87851 -7.5,-23.49665 0,-24.37516 -0.7208,-22.11702 7.5,-23.49665 9.7968002,-1.64415 20.6853002,-11.03741 24.4462002,-21.08923 2.7916,-7.46121 2.7482,-17.48313 -0.1089,-25.11923 -4.167,-11.13733 -17.7017,-21.29489 -28.3748002,-21.29489 h -3.4625 v -22.29992 -22.29993 l 5.75,-1.19411 c 11.1746002,-2.32067 19.8770002,-8.80793 25.0934002,-18.70604 2.3346,-4.4299 2.6363,-6.1402 2.6458,-15 0.012,-11.1971 -1.5175,-15.66816 -7.918,-23.14573 -4.3289,-5.05735 -14.0216,-10.26497 -20.5434002,-11.03738 l -5.0278,-0.59547 V 284.4902 262.25832 l 4.75,-0.63939 c 10.7409002,-1.44582 21.4209002,-9.23039 26.2290002,-19.11827 1.8491,-3.80265 2.5257,-7.09288 2.8253,-13.73963 0.3631,-8.05575 0.1588,-9.24191 -2.6099,-15.15862 -5.1394,-10.98262 -14.9948,-18.48957 -26.4444002,-20.14292 l -4.75,-0.68592 v -22.24716 -22.24717 l 4.8805,-0.57803 c 11.3181002,-1.34046 23.0532002,-10.60004 27.1260002,-21.40374 3.0599,-8.11687 2.502,-20.5711 -1.2452,-27.796815 -4.9818,-9.60645 -15.6799,-17.272923 -26.5113002,-18.998663 l -4.25,-0.67713 v -22.41211 -22.4121 h 3.4625 c 14.1176002,0 30.5375002,-16.41989 30.5375002,-30.5375098 V 6.5219086e-4 h 22.4121 22.4121 L 79.517345,4.2506522 c 1.7257,10.8314498 9.3922,21.5294898 18.9987,26.5113498 7.298195,3.78483 19.673695,4.30729 27.968995,1.18079 10.7983,-4.0699 19.8674,-15.54416 21.2037,-26.8270298 l 0.6058,-5.11511000914 h 22.2472 22.2472 L 193.45884,4.7506522 c 1.5781,11.1899798 9.3514,21.3869898 20.1589,26.4444098 5.8872,2.75496 7.1431,2.97446 15.1586,2.64953 6.7409,-0.27326 9.8772,-0.91288 13.7136,-2.79671 9.9002,-4.86147 17.7014,-15.57741 19.1443,-26.2972298 l 0.6394,-4.75000000914 h 22.2319 22.2319 L 307.33294,5.0284622 c 0.7724,6.5217998 5.98,16.2145298 11.0373,20.5434398 7.4776,6.40052 11.9487,7.93004 23.1458,7.91799 8.8733,-0.01 10.5684,-0.3096 15.0456,-2.66329 9.9692,-5.24086 16.311,-13.76309 18.6604,-25.0759498 l 1.1941,-5.75000000914 h 22.2999 22.3 V 3.4631422 c 0,10.7652998 10.1381,24.1858798 21.5073,28.4708098 4.9823,1.87777 7.4257,2.18828 14.4927,1.84175 9.7877,-0.47996 14.523,-2.46031 21.7501,-9.09609 4.531,-4.16023 10.2345,-14.26317 10.2627,-18.1789598 0.01,-1.1 0.2858,-3.0125 0.6175,-4.25 0.6019,-2.24599001 0.6417,-2.25000000914 22.3793,-2.25000000914 23.7316,0 22.9894,-0.18825000086 22.9912,5.83179000914 0,7.7108598 9.5459,20.3077398 19.1498,25.2762898 6.6365,3.4334 19.3996,3.81861 27.342,0.82522 11.3692,-4.28493 21.5074,-17.70551 21.5074,-28.4708098 V 6.5219086e-4 h 22.2999 22.2999 L 648.80994,5.7506522 c 2.3207,11.1746498 8.808,19.8770598 18.7061,25.0934398 4.4299,2.33459 6.1402,2.63627 15,2.6458 11.1971,0.0121 15.6681,-1.51747 23.1457,-7.91799 5.0573,-4.32891 10.265,-14.02164 11.0374,-20.5434398 l 0.5954,-5.02781000914 h 22.2319 22.2319 L 762.39774,4.7506522 c 1.443,10.7198198 9.2442,21.4357598 19.1443,26.2972298 3.8301,1.88076 6.974,2.52354 13.6711,2.79512 7.6664,0.3109 9.3653,0.0468 14.3359,-2.22882 3.1013,-1.41984 7.2876,-3.8943 9.3029,-5.49879 5.1307,-4.08495 10.0148,-12.65967 11.3741,-19.9686398 l 1.143,-6.14610000914 h 22.1842 22.1842 L 876.34324,5.1157622 c 1.2298,10.3837498 9.0427,20.9492698 19.1728,25.9276598 4.3051,2.11575 6.3897,2.45574 15,2.44647 8.8885,-0.01 10.5557,-0.30585 15,-2.66581 9.6717,-5.13581 17.2781,-15.77489 18.9986,-26.5734298 l 0.6772,-4.25000000914 h 22.4121 22.4121 V 3.4631422 c 0,14.1176198 16.41996,30.5375098 30.53756,30.5375098 h 3.4625 v 22.4121 22.41211 l -4.25,0.67713 c -10.8315,1.72574 -21.52956,9.392213 -26.51146,18.998663 -3.7472,7.225715 -4.3051,19.679945 -1.2452,27.796815 4.0846,10.83511 15.67406,20.04741 26.89156,21.37596 l 5.1151,0.60581 v 22.24717 22.24716 l -4.75,0.66991 c -11.19,1.57815 -21.38706,9.35146 -26.44446,20.15893 -2.755,5.8872 -2.9745,7.14305 -2.6496,15.15862 0.2733,6.74083 0.9129,9.87719 2.7967,13.71355 4.8615,9.90018 15.57756,17.70138 26.29736,19.14435 l 4.75,0.63939 v 22.23188 22.23188 l -5.0278,0.59547 c -6.5218,0.77241 -16.2146,5.98003 -20.54356,11.03738 -6.4005,7.47757 -7.93,11.94863 -7.918,23.14573 0.01,8.8598 0.3112,10.5701 2.6458,15 5.2164,9.89811 13.91896,16.38537 25.09356,18.70604 l 5.75,1.19411 v 22.16064 22.16063 l -5.1151,0.60581 c -11.2829,1.33629 -22.75726,10.40541 -26.82716,21.20376 -1.8682,4.95686 -2.179,7.41033 -1.8329,14.46901 0.48,9.78775 2.4603,14.52308 9.0961,21.75016 4.16026,4.53093 14.26326,10.23443 18.17906,10.26271 1.1,0.008 3.021,0.28799 4.2688,0.62233 l 2.2688,0.6079 -0.2688,22.11525 -0.2688,22.11525 -5.3853,0.77445 c -11.0235,1.58525 -22.04786,10.61157 -26.06106,21.33783 -2.7445,7.3354 -2.7445,17.49284 0,24.82824 4.0623,10.85737 16.01246,20.30929 27.01366,21.36636 l 4.9327,0.47398 v 22.26148 22.26148 l -3.75,0.6603 c -12.0117,2.11501 -21.80276,8.98095 -27.05266,18.97051 -2.3802,4.52912 -2.6771,6.19679 -2.6867,15.09177 -0.012,11.24459 1.5127,15.6626 8.036,23.28357 4.17436,4.87681 14.38296,10.22875 20.91536,10.96503 l 4.538,0.5115 v 22.24112 22.24112 l -4.75,0.63939 c -10.7183,1.44277 -21.35266,9.18084 -26.27396,19.11827 -2.1397,4.32061 -2.4747,6.35878 -2.4654,15 0.01,8.87338 0.3096,10.56845 2.6633,15.04564 5.2615,10.00832 15.57986,17.53124 26.07606,19.01154 l 4.75,0.66991 v 22.24716 22.24717 l -5.0278,0.59547 c -6.5218,0.77241 -16.2146,5.98003 -20.54356,11.03738 -6.4005,7.47757 -7.93,11.94863 -7.918,23.14573 0.01,8.88855 0.3059,10.55572 2.6658,15 1.4603,2.75 4.6055,6.8867 6.98926,9.19267 4.4158,4.27149 13.7191,9.26888 17.3343,9.31122 1.1,0.0129 3.0125,0.29476 4.25,0.6264 2.2484,0.60253 2.25,0.61929 2.25,22.98634 v 22.38332 h -3.4625 c -14.1176,0 -30.53756,16.41989 -30.53756,30.53749 v 3.4625 h -22.3834 c -22.3671,0 -22.3838,0 -22.9863,-2.25 -0.3317,-1.2375 -0.6095,-3.15 -0.6175,-4.25 -0.028,-3.9158 -5.7317,-14.0187 -10.2627,-18.17889 -8.0213,-7.365 -11.8135,-8.8023 -23.2501,-8.8123 -8.6078,-0.01 -10.6961,0.3333 -15,2.4485 -10.0785,4.953 -17.9607,15.69299 -19.2006,26.16209 l -0.578,4.8806 h -22.2472 -22.2471 l -0.7079,-4.75 c -1.5896,-10.6668 -8.9622,-20.80299 -18.9736,-26.08589 -4.4962,-2.3726 -6.1345,-2.6613 -15.0456,-2.6518 -8.596,0.01 -10.7021,0.3569 -15,2.4754 -9.9246,4.8921 -17.6748,15.53819 -19.1183,26.26229 l -0.6394,4.75 h -22.2423 -22.2424 l -0.6394,-4.75 c -1.4426,-10.7172 -9.2384,-21.42779 -19.1443,-26.30239 -4.2783,-2.1052 -6.3725,-2.4461 -14.9739,-2.4368 -8.895,0.01 -10.5627,0.3065 -15.0918,2.6867 -9.9896,5.2498 -16.8555,15.04079 -18.9705,27.05249 l -0.6603,3.75 h -22.2494 -22.2495 l -0.6058,-5.1151 c -1.3251,-11.1885 -10.4262,-22.77819 -20.9912,-26.73109 -7.6117,-2.8479 -17.6445,-2.8878 -25.0957,-0.1 -10.0518,3.7609 -19.445,14.64929 -21.0892,24.44619 -1.3905,8.2856 0.9552,7.5694 -23.8068,7.2689 l -22.1634,-0.2689 -0.7745,-5.3853 c -1.5852,-11.0235 -10.6116,-22.04769 -21.3378,-26.06089 -7.3905,-2.7651 -17.4887,-2.7461 -24.9543,0.047 -11.1976,4.1896 -21.4598,17.78809 -21.4598,28.43659 v 3.4625 h -22.3887 -22.3888 l -0.6603,-3.75 c -2.115,-12.0117 -8.9809,-21.80269 -18.9705,-27.05249 -4.5291,-2.3802 -6.1968,-2.6771 -15.0917,-2.6867 -11.2446,-0.012 -15.6626,1.5127 -23.2836,8.036 -4.8768,4.17429 -10.2288,14.38279 -10.965,20.91519 l -0.5115,4.538 h -22.2412 -22.2411 l -0.6394,-4.75 c -1.4396,-10.6951 -8.6092,-20.57919 -18.8341,-25.96499 -4.7588,-2.5067 -6.2783,-2.7834 -15.2841,-2.7834 -8.8994,0 -10.5554,0.293 -15.0457,2.6625 -10.0198,5.2873 -17.5319,15.59479 -19.0115,26.08589 l -0.6699,4.75 h -22.2472 -22.2472 l -0.5954,-5.0278 c -0.7724,-6.5218 -5.9801,-16.2145 -11.0374,-20.54339 -7.4776,-6.4005 -11.9486,-7.93 -23.1457,-7.918 -8.8886,0.01 -10.55579,0.3059 -14.999995,2.6658 -2.75,1.4603 -6.8867,4.6055 -9.1927,6.98919 -4.2715,4.4157 -9.2689,13.719 -9.3112,17.3342 -0.013,1.1 -0.2948,3.0125 -0.6264,4.25 -0.6026,2.2484 -0.6193,2.25 -22.9864,2.25 h -22.3833 z M 434.14004,888.56056 c 6.8458,-3.81732 21.5492,-8.35956 34.5202,-10.66416 8.9792,-1.59536 17.6788,-2.22975 35.8558,-2.61467 27.3581,-0.57934 37.7508,0.33455 76.4902,6.72624 46.8658,7.73248 68.4369,9.26457 99.5098,7.06772 40.8288,-2.8866 72.5547,-11.17676 115.5468,-30.19313 l 13.5468,-5.99207 12.3458,-57.96898 c 6.7902,-31.88295 12.0936,-58.22116 11.7854,-58.52938 -0.3082,-0.30821 -5.8849,1.45366 -12.3926,3.91527 -44.152,16.70092 -95.9692,28.7622 -140.3322,32.66456 -16.827,1.48018 -42.1909,1.25043 -55.6988,-0.50452 -12.7094,-1.6512 -46.4107,-7.24293 -46.9593,-7.79147 -0.1836,-0.18364 59.6268,-58.64169 132.9121,-129.90679 73.2853,-71.2651 134.6713,-131.07943 136.4133,-132.92072 2.9697,-3.13883 3.828,-6.05164 13.75,-46.66421 5.8205,-23.82402 10.5827,-43.73652 10.5827,-44.25 0,-0.57568 -97.7591,-0.93359 -255,-0.93359 -194.7788,0 -255,-0.27773 -255,-1.17603 0,-0.64681 5.85,-28.57058 13,-62.05281 7.15,-33.48223 13,-61.07802 13,-61.32397 0,-0.24596 70.2,-0.44719 156,-0.44719 88.7601,0 156,-0.37805 156,-0.8771 0,-0.4824 6.3,-30.43069 14,-66.55176 7.7,-36.12107 14,-66.10138 14,-66.62291 0,-0.59481 -83.3126,-0.94823 -223.5314,-0.94823 -211.9601,0 -223.5668,0.0906 -224.2145,1.75 -1.2341,3.16138 -140.9299,662.73147 -140.5282,663.5 0.2157,0.4125 30.6633,0.75 67.6613,0.75 h 67.2693 l 1.0721,-4.75 c 0.5897,-2.6125 14.4632,-67.75 30.8301,-144.75 16.3669,-77 30.0481,-140.33887 30.4027,-140.75304 0.3545,-0.41417 73.2184,-0.63917 161.9197,-0.5 l 161.2751,0.25304 -86.3281,85.4543 c -47.4805,46.99986 -110.7444,109.70066 -140.5866,139.33511 l -54.2584,53.88081 13.6551,24.16489 c 31.3516,55.48205 35.5115,62.66489 36.2917,62.66489 0.45,0 2.7873,-1.09805 5.1941,-2.4401 z"
     id="path817"
     inkscape:connector-curvature="0" />
</svg>
