<?xml version="1.0" encoding="UTF-8" standalone="no"?>
<!-- Created with Inkscape (http://www.inkscape.org/) -->

<svg
   xmlns:dc="http://purl.org/dc/elements/1.1/"
   xmlns:cc="http://creativecommons.org/ns#"
   xmlns:rdf="http://www.w3.org/1999/02/22-rdf-syntax-ns#"
   xmlns:svg="http://www.w3.org/2000/svg"
   xmlns="http://www.w3.org/2000/svg"
   xmlns:sodipodi="http://sodipodi.sourceforge.net/DTD/sodipodi-0.dtd"
   xmlns:inkscape="http://www.inkscape.org/namespaces/inkscape"
   version="1.1"
   id="svg2"
   width="245.60048"
   height="200.82993"
   viewBox="0 0 245.60048 200.82993"
   sodipodi:docname="gimp.svg"
   inkscape:version="0.92.3 (2405546, 2018-03-11)">
  <metadata
     id="metadata8">
    <rdf:RDF>
      <cc:Work
         rdf:about="">
        <dc:format>image/svg+xml</dc:format>
        <dc:type
           rdf:resource="http://purl.org/dc/dcmitype/StillImage" />
        <dc:title></dc:title>
      </cc:Work>
    </rdf:RDF>
  </metadata>
  <defs
     id="defs6" />
  <sodipodi:namedview
     pagecolor="#ffffff"
     bordercolor="#666666"
     borderopacity="1"
     objecttolerance="10"
     gridtolerance="10"
     guidetolerance="10"
     inkscape:pageopacity="0"
     inkscape:pageshadow="2"
     inkscape:window-width="730"
     inkscape:window-height="480"
     id="namedview4"
     showgrid="false"
     inkscape:zoom="0.921875"
     inkscape:cx="110.06282"
     inkscape:cy="103.95138"
     inkscape:window-x="0"
     inkscape:window-y="0"
     inkscape:window-maximized="0"
     inkscape:current-layer="svg2" />
  <path
     style="fill:#000000"
     d="m 236.04117,198.00397 c -4.46318,-1.52736 -10.12582,-3.9555 -12.58365,-5.39588 -5.67136,-3.32364 -11.69643,-9.95431 -12.44467,-13.69552 -0.50265,-2.51325 -1.24364,-3.04484 -5.71716,-4.10154 -8.00792,-1.89157 -24.32269,-7.72325 -33.22318,-11.87556 l -8.08353,-3.77117 -3.57907,1.83617 c -6.0359,3.0966 -19.80835,6.62545 -28.75387,7.36746 -16.09055,1.33467 -37.854033,-2.71274 -57.401356,-10.6751 -14.304986,-5.82695 -26.164282,-12.81429 -21.749127,-12.81429 1.908748,0 9.246464,-5.7669 12.091517,-9.50303 3.36567,-4.41981 7.05896,-14.88697 7.05896,-20.00579 0,-3.23446 -0.0945,-3.30484 -4.89473,-3.64467 l -4.894727,-0.34651 -1.071151,6.47102 c -1.414018,8.54234 -5.011387,13.68391 -12.145577,17.3592 -4.773789,2.45928 -6.313644,2.7692 -11.749185,2.36472 C 28.568547,136.95344 20.601296,132.96758 13.65188,125.94257 7.1933489,119.41379 3.3127959,112.60365 1.0760419,103.87275 -4.8496451,80.742531 14.678935,64.166446 35.624191,74.547881 l 5.890026,2.91937 1.802305,-4.04435 c 1.52547,-3.42314 1.881964,-7.878105 2.320911,-29.003515 l 0.518605,-24.959155 6.94663,9.803192 c 10.914896,15.403264 22.666856,24.893723 34.610769,27.950393 5.385,1.37812 5.40013,1.37539 11.75459,-2.11746 8.430623,-4.63405 16.855033,-5.38979 25.906463,-2.32403 7.77957,2.63497 8.40605,2.6256 16.8564,-0.25207 15.31318,-5.21474 29.36124,-14.300355 37.81566,-24.457372 2.14451,-2.576389 6.0192,-9.184343 8.61041,-14.684343 5.28426,-11.2161292 7.52908,-13.80329924 11.56175,-13.32495624 3.69424,0.438201 6.18024,4.11238404 7.6626,11.32495624 1.71002,8.320284 1.6606,55.059705 -0.0714,67.5 -2.9514,21.199109 -8.22213,39.937519 -14.30337,50.851069 -1.63994,2.9431 -2.8397,5.45525 -2.66612,5.58257 0.17357,0.12733 3.87841,2.12883 8.23298,4.4478 4.35456,2.31896 11.07017,6.33181 14.92357,8.91743 6.01694,4.03736 7.73543,4.71081 12.17104,4.76972 5.7344,0.0761 11.18385,2.79209 13.89041,6.92282 0.88515,1.3509 2.29681,5.05547 3.13704,8.23238 1.75636,6.64088 3.24117,32.30168 1.86477,32.22743 -0.49732,-0.0268 -4.55591,-1.29844 -9.01909,-2.82579 z m -23.9363,-35.856 c 0.58251,-1.92891 -0.25333,-2.8302 -6.18045,-6.66444 -9.23609,-5.97479 -22.51845,-12.7299 -33.84562,-17.2131 l -9.34258,-3.69773 0.54804,-4.09708 c 0.43401,-3.24462 0.0592,-4.81653 -1.80151,-7.55491 -2.28531,-3.36331 -10.14239,-10.04217 -11.8137,-10.04217 -0.45733,0 0.0276,1.77826 1.07774,3.95169 5.78014,11.96351 -0.77667,14.89417 -35.59075,15.90778 l -22.000003,0.64053 11.506973,3.254 c 20.39917,5.76859 37.37404,7.71789 45.9044,5.27142 3.09238,-0.88688 4.03877,-0.5753 10.51742,3.46266 9.70932,6.05155 24.15175,12.66557 35.57121,16.2901 14.53321,4.61282 14.20727,4.60246 15.44883,0.49125 z M 25.539165,105.24785 c 4.682171,-3.27952 6.470854,-11.850319 3.622584,-17.358269 -4.759837,-9.20451 -15.645005,-7.63489 -18.41593,2.65554 -2.8908411,10.735759 6.761192,20.328669 14.793346,14.702729 z m 90.187955,-0.12086 c -4.77782,-2.43627 -7.26989,-6.262089 -7.82203,-12.008359 -0.47647,-4.95873 1.05697,-9.58933 3.9785,-12.01398 1.11026,-0.92143 1.2868,-0.50619 0.96321,2.26557 -0.30719,2.63134 0.17831,3.9683 2.16106,5.95105 3.09681,3.09681 6.48411,3.26077 10.01332,0.48469 3.38404,-2.66189 3.61238,-7.9499 0.47861,-11.08367 l -2.15625,-2.15625 3.37876,0.67575 c 3.69826,0.73965 9.92469,6.11112 9.94905,8.58292 0.0128,1.30169 0.16058,1.32435 0.91049,0.13965 2.40758,-3.80345 -1.79808,-14.10872 -7.88373,-19.317815 -8.97504,-7.6823 -21.55669,-7.46141 -29.875973,0.52453 -6.77473,6.503265 -9.17867,14.712515 -6.75236,23.058745 2.84381,9.782339 11.415423,16.533259 21.086263,16.607319 l 5,0.0383 -3.42892,-1.74844 z m -46.652646,-4.2173 c -3.39879,-1.374959 -7.418436,-6.890569 -7.418436,-10.179299 0,-2.72246 0.142857,-2.85185 1.571426,-1.42328 1.75449,1.75448 5.55309,2.0533 8.19214,0.64443 0.95504,-0.50985 2.52783,-1.17222 3.49509,-1.47194 0.96725,-0.29971 2.29845,-1.72966 2.9582,-3.17766 0.99495,-2.18367 0.90409,-3.14755 -0.53269,-5.65098 -1.86146,-3.24341 -1.51416,-3.37755 3.43817,-1.32787 1.21367,0.50231 1.769693,-0.0359 2.207303,-2.13655 0.46706,-2.24203 -0.003,-3.35239 -2.333173,-5.50891 -3.48008,-3.221025 -10.07135,-5.195225 -14.54394,-4.356165 -6.926209,1.29937 -13.570701,8.043005 -14.898508,15.120825 -0.584184,3.11397 -0.09131,4.58183 3.577129,10.65331 4.476548,7.40893 7.677029,9.726409 13.368849,9.680409 2.6147,-0.0211 2.73266,-0.1324 0.91844,-0.86632 z M 61.211039,83.628541 c 0.820387,-2.67604 2.363285,-4.75 3.533715,-4.75 0.46411,0 -0.0854,1.575 -1.22122,3.5 -2.365053,4.00847 -3.315683,4.52233 -2.312495,1.25 z"
     id="path817"
     inkscape:connector-curvature="0" />
</svg>
