<?xml version="1.0" encoding="UTF-8" standalone="no"?>
<!-- Created with Inkscape (http://www.inkscape.org/) -->

<svg
   xmlns:dc="http://purl.org/dc/elements/1.1/"
   xmlns:cc="http://creativecommons.org/ns#"
   xmlns:rdf="http://www.w3.org/1999/02/22-rdf-syntax-ns#"
   xmlns:svg="http://www.w3.org/2000/svg"
   xmlns="http://www.w3.org/2000/svg"
   xmlns:sodipodi="http://sodipodi.sourceforge.net/DTD/sodipodi-0.dtd"
   xmlns:inkscape="http://www.inkscape.org/namespaces/inkscape"
   version="1.1"
   id="svg2"
   width="1865.7207"
   height="1840.597"
   viewBox="0 0 1865.7207 1840.597"
   sodipodi:docname="inkscape.svg"
   inkscape:version="0.92.3 (2405546, 2018-03-11)">
  <metadata
     id="metadata8">
    <rdf:RDF>
      <cc:Work
         rdf:about="">
        <dc:format>image/svg+xml</dc:format>
        <dc:type
           rdf:resource="http://purl.org/dc/dcmitype/StillImage" />
        <dc:title></dc:title>
      </cc:Work>
    </rdf:RDF>
  </metadata>
  <defs
     id="defs6" />
  <sodipodi:namedview
     pagecolor="#ffffff"
     bordercolor="#666666"
     borderopacity="1"
     objecttolerance="10"
     gridtolerance="10"
     guidetolerance="10"
     inkscape:pageopacity="0"
     inkscape:pageshadow="2"
     inkscape:window-width="730"
     inkscape:window-height="480"
     id="namedview4"
     showgrid="false"
     inkscape:zoom="0.118"
     inkscape:cx="1000.0648"
     inkscape:cy="886.70975"
     inkscape:window-x="0"
     inkscape:window-y="0"
     inkscape:window-maximized="0"
     inkscape:current-layer="svg2" />
  <path
     style="fill:#000000"
     d="m 882.37859,1839.5007 c -13.4138,-1.9178 -26.3748,-5.7013 -36.4983,-10.6543 -6.4132,-3.1376 -10.2398,-5.928 -16.0959,-11.7369 -9.6663,-9.5885 -12.9706,-16.1928 -16.9631,-33.9042 -6.8042,-30.1855 -16.5139,-49.7614 -32.5664,-65.6585 -20.35891,-20.1616 -43.49964,-29.4623 -98.4613,-39.5735 -46.89387,-8.627 -62.7623,-13.6534 -80.62454,-25.5385 -18.8094,-12.5154 -27.54875,-28.3364 -24.37655,-44.1294 2.8711,-14.294 12.54742,-28.2279 38.71639,-55.7516 30.88849,-32.4875 40.01358,-44.174 45.0772,-57.7304 3.19317,-8.5488 3.67398,-14.465 1.77727,-21.8686 -4.06926,-15.8839 -18.67126,-29.0202 -49.92491,-44.9135 -31.59895,-16.069 -59.32826,-26.3632 -171.14486,-63.5357 -114.88642,-38.193 -147.23597,-50.2727 -178.5,-66.6539 -58.55469,-30.6806 -58.15756,-51.8996 1.58583,-84.7335 6.09721,-3.3509 27.77392,-13.9385 48.17046,-23.5281 52.09472,-24.4926 70.11322,-34.737 82.43294,-46.8669 9.64655,-9.4979 12.83875,-18.9449 9.27983,-27.4626 -3.10466,-7.4305 -5.84391,-9.7833 -17.1727,-14.7499 C 352.0109,1085.1316 316.55713,1075.0353 215.1017,1051.5328 106.37359,1026.3456 58.250447,1007.6183 28.216227,978.80555 14.735257,965.87285 6.2779069,952.42549 2.2312069,937.48899 c -2.49840992,-9.2217 -2.99168992,-29.0831 -1.00573,-40.4945 4.25586,-24.4546 18.2073901,-55.23305 39.4886401,-87.11582 7.11828,-10.66435 16.80689,-24.33972 21.53025,-30.38972 C 73.610677,764.9302 763.93042,58.262778 777.25573,47.545175 c 28.41866,-22.85724 59.42966,-36.91817 97.53786,-44.2254098 18.4311,-3.53415002 51.1309,-4.3927 71.0899,-1.86649 42.5471,5.38518 83.55311,22.7582698 117.33601,49.7119798 6.4623,5.155943 697.2254,709.820395 737.2815,752.118945 37.149,39.22883 58.6965,76.78739 63.7984,111.20479 1.765,11.9062 1.8635,18.6998 0.4218,29.0657 -8.7715,63.06451 -72.4953,115.28671 -204.9276,167.93991 -37.5939,14.9468 -65.7934,24.8329 -162.5,56.9687 -114.4316,38.0259 -141.3893,48.0329 -177.4578,65.8741 -20.2887,10.0357 -25.9712,16.3046 -26.0202,28.7052 -0.029,7.2792 3.3329,14.0327 10.7957,21.6879 11.1466,11.4338 27.196,21.6687 75.1823,47.9444 30.1429,16.5053 41.0461,23.1534 54.1,32.9867 18.9601,14.2825 29.5394,28.9659 30.6264,42.5076 0.4379,5.4558 0,7.8786 -3.0713,17.0626 -10.8354,32.381 -29.4934,57.6571 -54.1021,73.2922 -15.4707,9.8292 -36.1396,17.4328 -69.114,25.4252 -11.5164,2.7914 -29.489,7.15 -39.939,9.6857 -65.8021,15.9672 -110.6124,38.5407 -156.5895,78.8831 -31.5354,27.6706 -37.8573,41.1613 -25.7399,54.9274 5.4235,6.1614 13.3273,11.1304 35.084,22.0566 27.9086,14.0158 36.0311,20.2925 38.7288,29.9277 1.4114,5.0408 0.749,9.134 -2.5178,15.5592 -3.6799,7.2379 -8.7613,12.3289 -19.7034,19.7409 -60.6604,41.0901 -147.5071,74.0451 -220.76221,83.7708 -17.2526,2.2906 -51.6534,2.8246 -64.415,1.0001 z m 55.415,-572.4166 c 19.4626,-10.2792 35.1871,-26.9536 33.5662,-35.5939 -1.2126,-6.4641 -3.1254,-7.237 -29.6619,-11.9861 -106.0794,-18.9847 -306.44439,-62.214 -338.53043,-73.039 -12.775,-4.31 -23.25604,-2.5656 -21.64317,3.602 1.46671,5.6087 20.39046,17.8038 49.45915,31.8731 64.93999,31.4311 163.12375,65.8803 229.31015,80.4567 26.3863,5.8111 39.9358,7.5268 57.5,7.2809 14.1564,-0.1982 15.8901,-0.4231 20,-2.5937 z m 17.7342,-737.94009 c 47.97881,-30.33528 87.48371,-55.15506 87.78871,-55.15506 0.305,0 25.7723,13.31478 56.5941,29.58841 30.8217,16.27362 56.1857,29.43612 56.3643,29.25 0.304,-0.31682 26.5187,-157.65082 26.5187,-159.15877 0,-0.38231 30.4541,23.67516 67.6758,53.46104 l 67.6758,54.15614 2.3145,-2.89841 c 4.3957,-5.50468 6.5005,-13.83036 7.053,-27.89841 0.8061,-20.527 -3.4952,-38.19785 -12.6315,-51.89453 -3.4761,-5.21113 -252.6314,-259.54735 -282.0675,-287.93279 -21.7873,-21.009692 -46.17411,-33.848692 -77.70641,-40.910402 -8.5533,-1.91553 -12.7676,-2.19781 -32.8137,-2.19793 -20.028,-1.2e-4 -24.3113,0.28621 -33.1478,2.21586 -25.7012,5.61244 -48.8461,16.61794 -67.8522,32.264002 -7.9056,6.50802 -189.9635,188.84109 -224.61627,224.95579 -28.9792,30.20178 -56.16803,59.1624 -62.02951,66.07172 -31.363,36.96969 -37.51245,85.17481 -13.88032,108.80694 5.52434,5.52435 14.59623,10.30019 22.82532,12.01626 3.61385,0.75362 30.17035,1.09639 83.5,1.07775 l 78.20078,-0.0273 47.89942,-83.00599 c 26.34468,-45.6533 48.21308,-83.19983 48.59638,-83.43674 0.5262,-0.32522 36.5908,142.8989 58.235,231.27034 l 2.0263,8.27293 3.1214,-1.86787 c 1.7168,-1.02733 42.3769,-26.68765 90.3557,-57.02294 z M 423.18539,1624.0936 c -29.69502,-7.3024 -56.44337,-35.799 -56.37993,-60.0648 0.039,-14.9149 9.70047,-30.6865 26.54052,-43.3251 31.02237,-23.2827 79.86048,-35.6413 120.94761,-30.6062 20.91934,2.5636 39.63602,10.5382 52.13956,22.2151 8.87537,8.2886 8.84023,7.8623 1.80455,21.8947 -9.20958,18.3681 -20.7105,33.9318 -36.08717,48.8351 -11.29826,10.9504 -15.86756,14.7117 -26.35694,21.696 -14.18096,9.4423 -29.19696,16.036 -44,19.321 -11.05458,2.4531 -28.70838,2.4688 -38.6082,0.034 z m 1115.60821,-21.4709 c -25.2649,-5.8966 -42.4523,-20.3004 -48.4046,-40.5653 -5.2788,-17.9719 1.6507,-38.6163 20.0132,-59.623 7.5783,-8.6696 8.6339,-9.0861 17.5629,-6.929 27.8361,6.7246 52.8562,20.9887 67.5025,38.4835 7.248,8.6577 13.9824,22.428 15.531,31.7576 1.3652,8.2242 0.1592,16.8342 -2.9753,21.2424 -2.3763,3.3417 -18.7867,11.3682 -28.7297,14.0519 -9.9529,2.6864 -32.0668,3.5501 -40.5,1.5819 z m 115.5,-148.6653 c -55.2631,-4.7704 -97.9993,-17.3633 -102.0306,-30.065 -1.2385,-3.9019 5.9059,-20.6615 13.7116,-32.1653 17.4469,-25.7127 50.6055,-45.1163 88.6413,-51.8706 13.8001,-2.4506 40.9516,-2.9479 53.6777,-0.9831 20.9028,3.2271 41.4235,10.4974 57.1982,20.2647 10.8919,6.744 26.4517,21.8047 32.9063,31.8508 7.1623,11.1475 11.515,21.6779 10.747,26 -3.0433,17.1271 -24.6428,29.08 -63.5158,35.1488 -11.1619,1.7426 -18.8779,2.131 -47.3357,2.3825 -18.7,0.1652 -38.5,-0.088 -44,-0.5628 z"
     id="path817"
     inkscape:connector-curvature="0" />
</svg>
