<?xml version="1.0" encoding="UTF-8" standalone="no"?>
<!-- Created with Inkscape (http://www.inkscape.org/) -->

<svg
   xmlns:dc="http://purl.org/dc/elements/1.1/"
   xmlns:cc="http://creativecommons.org/ns#"
   xmlns:rdf="http://www.w3.org/1999/02/22-rdf-syntax-ns#"
   xmlns:svg="http://www.w3.org/2000/svg"
   xmlns="http://www.w3.org/2000/svg"
   xmlns:sodipodi="http://sodipodi.sourceforge.net/DTD/sodipodi-0.dtd"
   xmlns:inkscape="http://www.inkscape.org/namespaces/inkscape"
   version="1.1"
   id="svg2"
   width="598.66858"
   height="648.2627"
   viewBox="0 0 598.66858 648.2627"
   sodipodi:docname="jquery.svg"
   inkscape:version="0.92.3 (2405546, 2018-03-11)">
  <metadata
     id="metadata8">
    <rdf:RDF>
      <cc:Work
         rdf:about="">
        <dc:format>image/svg+xml</dc:format>
        <dc:type
           rdf:resource="http://purl.org/dc/dcmitype/StillImage" />
        <dc:title></dc:title>
      </cc:Work>
    </rdf:RDF>
  </metadata>
  <defs
     id="defs6" />
  <sodipodi:namedview
     pagecolor="#ffffff"
     bordercolor="#666666"
     borderopacity="1"
     objecttolerance="10"
     gridtolerance="10"
     guidetolerance="10"
     inkscape:pageopacity="0"
     inkscape:pageshadow="2"
     inkscape:window-width="2400"
     inkscape:window-height="1271"
     id="namedview4"
     showgrid="false"
     inkscape:zoom="1.0012632"
     inkscape:cx="-104.50766"
     inkscape:cy="338.45749"
     inkscape:window-x="2391"
     inkscape:window-y="-9"
     inkscape:window-maximized="1"
     inkscape:current-layer="svg2" />
  <path
     style="fill:#000000;stroke-width:1.33333337"
     d="M 283.95809,639.8615 C 275.54302,635.24083 252.75798,622.88483 233.32465,612.40374 175.51846,581.22675 130.44226,556.88241 99.991309,540.39427 84.224639,531.85716 55.2766,516.20428 35.66232,505.61008 L 0,486.3479 0.32899,323.69783 0.65797,161.04777 l 20,-10.74352 c 24.17336,-12.98533 80.17197,-43.22875 124.66668,-67.32928 17.96666,-9.73164 43.46666,-23.51028 56.66666,-30.6192 13.20001,-7.10892 35.10001,-18.926 48.66667,-26.26017 13.56667,-7.33417 30.06667,-16.20602 36.66667,-19.71523 l 12,-6.38037 32.6667,17.66534 c 17.9666,9.71594 44.0666,23.82117 58,31.34495 13.9333,7.52378 43.3333,23.41982 65.3333,35.32453 22,11.904713 52.6,28.4384 68,36.74153 15.4,8.30313 38.5,20.7814 51.3333,27.72948 l 23.3334,12.63286 0.3386,162.45632 0.3386,162.45629 -43.672,23.56308 c -43.0781,23.24269 -65.0616,35.12159 -146.3386,79.07481 -22.7333,12.2938 -52.7333,28.50084 -66.6666,36.01565 -13.9334,7.5148 -29.2483,15.82207 -34.0333,18.46058 l -8.69986,4.79729 z M 102.23784,494.92576 c 9.53689,-3.61343 14.71403,-12.8736 19.71391,-35.26148 1.96322,-8.79068 4.68419,-20.18304 6.0466,-25.31638 1.36243,-5.13333 2.66819,-11.73333 2.90171,-14.66666 l 0.42459,-5.33334 -10.92488,-0.38604 c -9.37452,-0.33127 -11.10583,-0.0475 -12.2,2 -0.70133,1.31232 -3.73394,13.42784 -6.73914,26.92338 -6.433851,28.89261 -8.825461,33.46266 -17.511771,33.46266 -4.63306,0 -5.33302,0.42475 -6.04238,3.66667 -0.44127,2.01667 -1.3527,5.4062 -2.0254,7.53229 -2.70867,8.5608 -2.41687,8.80104 10.6901,8.80104 6.55226,0 13.602261,-0.63997 15.666661,-1.42214 z m 128.84332,-35.02838 c 3.501,-11.10646 3.14721,-12.88281 -2.56583,-12.88281 -4.0446,0 -4.66189,-0.37101 -3.8822,-2.33333 3.25552,-8.19342 10.03769,-29.87486 10.75164,-34.37115 1.24196,-7.82163 -2.59596,-19.73844 -8.44036,-26.2075 -6.16976,-6.8292 -12.54751,-9.99882 -23.88726,-11.87153 -30.4619,-5.03068 -55.34401,12.87908 -62.48481,44.97564 -4.73615,21.28806 -0.46711,37.63398 11.60008,44.41611 8.31481,4.67319 11.77721,5.06827 45.90873,5.23843 l 30.75651,0.15333 z M 170.35817,443.6269 c -1.99823,-1.09764 -4.24823,-3.145 -5,-4.54969 -3.72264,-6.95581 0.55874,-27.93786 7.59224,-37.20778 9.30934,-12.2694 30.06497,-12.55745 35.78819,-0.49668 2.1469,4.5243 2.15098,5.39399 0.0667,14.23031 -1.22096,5.17634 -3.64594,13.91151 -5.38885,19.41151 l -3.16894,10 -13.1281,0.30401 c -9.61768,0.22274 -14.09962,-0.22962 -16.76127,-1.69168 z m 133.33028,21.721 c 0.7463,-0.91666 2.3701,-6.76666 3.6084,-13 1.2382,-6.23333 4.2656,-19.43333 6.7275,-29.33333 2.4619,-9.9 4.8889,-21.15 5.3933,-25 l 0.9172,-7 h -10.0931 c -5.5512,0 -10.46898,0.60825 -10.92844,1.35168 -1.37175,2.21954 -5.45026,18.16476 -9.45926,36.98165 l -3.76395,17.66667 h -8.95414 c -10.04646,0 -13.16687,-1.84736 -13.11076,-7.76191 0.0187,-1.96428 2.04661,-12.86002 4.50662,-24.21275 2.46002,-11.35273 4.18059,-21.40273 3.82348,-22.33333 -0.73878,-1.92523 -17.21378,-2.38084 -20.091,-0.55561 -1.70608,1.08229 -8.47868,28.01929 -10.94453,43.53027 -2.66524,16.76517 2.487,27.05669 15.03828,30.03874 7.60739,1.80744 45.8003,1.5072 47.3304,-0.37208 z m 82.8591,-5.06562 c 0.794,-3.70276 1.4438,-8.16148 1.4438,-9.90826 v -3.17596 l -21.4436,-0.42508 c -19.41,-0.38477 -21.6228,-0.67053 -23.3333,-3.01325 -4.2566,-5.82963 -3.3253,-6.07849 22.7461,-6.07849 28.5485,0 27.1129,0.70412 30.0763,-14.75096 2.8937,-15.09091 -0.9534,-24.76994 -11.7478,-29.55634 -7.912,-3.50833 -25.4433,-3.80561 -36.3335,-0.61611 -16.7624,4.90928 -27.7896,21.90871 -30.1408,46.46439 -1.337,13.96375 4.1643,22.72583 16.6334,26.49276 1.9488,0.58871 14.1434,1.12195 27.0994,1.18499 l 23.5561,0.11467 1.4439,-6.7323 z m -39.8896,-41.35536 c 0,-5.2235 6.7952,-9.24569 15.62,-9.24569 6.7012,0 9.7134,2.08195 9.7134,6.71358 v 3.95309 h -12.6667 c -8.0765,0 -12.6667,-0.51494 -12.6667,-1.42098 z m 71.6118,46.42098 c 0.6994,-0.91666 3.2384,-10.96666 5.6421,-22.33333 2.4038,-11.36667 4.9027,-22.82224 5.5532,-25.45684 l 1.1827,-4.79016 23.5735,-0.88934 c 12.9654,-0.48913 23.8273,-1.14313 24.1375,-1.45332 0.3102,-0.3102 0.1465,-3.03498 -0.3637,-6.0551 -1.0808,-6.39692 -4.6244,-10.17916 -11.2654,-12.02406 -5.455,-1.5154 -50.6717,-1.78118 -52.8686,-0.31077 -0.8049,0.53877 -2.4995,5.47959 -3.7656,10.97959 -3.6354,15.79161 -5.7294,24.75564 -10.106,43.26208 -2.2453,9.49415 -3.7822,18.04415 -3.4154,19 0.9056,2.36 19.9018,2.42239 21.6957,0.0712 z m 66.717,0 c 0.7271,-0.91666 2.0641,-4.83177 2.971,-8.70025 1.7393,-7.41883 3.4226,-9.74699 39.0336,-53.98731 8.6166,-10.70468 15.6666,-20.10417 15.6666,-20.88775 0,-0.91588 -4.7698,-1.42469 -13.3555,-1.42469 h -13.3555 l -11.6445,15.8428 c -6.4044,8.71355 -13.6853,18.76001 -16.1797,22.3255 -4.4967,6.42753 -4.5461,6.45438 -5.8028,3.1572 -2.6394,-6.92529 -2.4755,-6.84918 -14.9953,-6.96397 -6.6,-0.0605 -12,0.43339 -12,1.09756 0,0.66416 2.0301,8.05706 4.5113,16.42865 4.1247,13.91658 4.3818,15.78217 3,21.76838 -3.0231,13.0966 -3.0869,13.01055 9.6588,13.01055 7.3421,0 11.6231,-0.57116 12.492,-1.66667 z m -351.9811,-56 c 2.05101,-2.54937 4.5553,-15.96369 3.22802,-17.29097 -0.63909,-0.6391 -5.86762,-0.98507 -11.61897,-0.76884 l -10.45699,0.39314 -1.72414,6.66667 c -3.27556,12.6654 -3.27468,12.66667 8.72782,12.66667 6.79871,0 10.97634,-0.58786 11.84426,-1.66667 z m 212.319,-34.93968 c 17.0573,-3.58268 40.8418,-13.77193 48.2431,-20.66725 1.6095,-1.49952 3.5226,-2.7264 4.2514,-2.7264 1.8966,0 20.8388,-20.08782 20.8388,-22.09922 7.5669,-10.79919 22.86156,-34.55557 4.8102,-17.19411 -6.72134,6.9943 -13.78865,11.78998 -20.5517,16.64642 -1.9985,1.47755 -10.5242,5.18405 -18.9461,8.23671 -31.68973,7.30923 -55.16094,8.20876 -81.979,1.67699 -20.34237,-5.72458 -44.72724,-15.75126 -61.01034,-31.49232 -13.75721,-15.47765 -28.15994,-35.35323 -35.47556,-56.4661 -8.25737,-23.83077 -8.13551,-49.13526 -0.0806,-69.54207 2.0773,-5.29197 -2.52896,-2.67349 -11.37817,8.42872 -32.17525,71.1207 -11.91454,125.51874 39.32674,164.10934 47.78052,29.35139 81.54981,26.0297 111.95125,21.08927 z m 31.3333,-76.46178 c 15.73039,-2.96746 23.30671,-8.50817 34.4445,-16.30429 12.81355,-10.73774 28.6606,-31.62987 24.7658,-34.037 -11.08266,8.00651 -19.91623,15.66712 -32.0302,21.3598 -9.09389,3.86302 -29.00195,7.22968 -44.5134,6.04961 -15.68352,-2.41738 -26.6028,-4.65923 -40.95011,-12.13264 -10.72554,-5.50322 -18.43784,-13.6196 -24.8588,-19.94045 -8.59055,-11.54146 -16.25204,-17.76322 -20.70213,-29.31393 -6.75269,-17.5274 -6.92392,-40.49524 1.85047,-58.98249 1.4652,-3.03393 1.47562,-3.99737 0.0577,-5.33333 -1.36505,-1.28617 -1.86029,-1.27629 -2.34513,0.0468 -0.33806,0.92248 -3.71672,5.72248 -7.50818,10.66667 -10.85098,14.15008 -10.20094,11.50258 -16.48579,33.53282 -1.82601,6.4007 -1.47163,21.4728 1.53275,34.12326 4.11874,17.6598 19.17471,34.79225 26.74252,42.19959 11.77541,12.06809 27.98455,21.22073 42.6667,25.7938 16.92071,5.88211 40.25362,5.54706 57.3333,2.27182 z m 48.6667,-96.16997 c -33.75792,7.35522 -60.83963,9.0489 -77.89077,-4.4647 -14.11632,-11.18765 -21.67203,-35.1548 -17.63293,-53.83626 0.28823,-1.68719 2.86228,-7.86879 0.3145,-5.79428 -22.51185,25.1359 -16.24448,54.61866 3.09242,73.78328 47.92744,34.12505 119.5697,-22.9838 92.11678,-9.68804 z"
     id="path3715"
     inkscape:connector-curvature="0"
     sodipodi:nodetypes="sssscccssssscccssccccsscccscscccccssccscssccssscscsccscccccccccsccscscscscsssccscscscccccccccssscssccccsccccccccccccsscccccscsscscsccssccsccccccsccccccccccccsccccsccccccscccc" />
</svg>
