<?xml version="1.0" encoding="UTF-8" standalone="no"?>
<!-- Created with Inkscape (http://www.inkscape.org/) -->

<svg
   xmlns:dc="http://purl.org/dc/elements/1.1/"
   xmlns:cc="http://creativecommons.org/ns#"
   xmlns:rdf="http://www.w3.org/1999/02/22-rdf-syntax-ns#"
   xmlns:svg="http://www.w3.org/2000/svg"
   xmlns="http://www.w3.org/2000/svg"
   xmlns:sodipodi="http://sodipodi.sourceforge.net/DTD/sodipodi-0.dtd"
   xmlns:inkscape="http://www.inkscape.org/namespaces/inkscape"
   version="1.1"
   id="svg2"
   width="1306.9961"
   height="888.56799"
   viewBox="0 0 1306.996 888.568"
   sodipodi:docname="mysql.svg"
   inkscape:version="0.92.3 (2405546, 2018-03-11)">
  <metadata
     id="metadata8">
    <rdf:RDF>
      <cc:Work
         rdf:about="">
        <dc:format>image/svg+xml</dc:format>
        <dc:type
           rdf:resource="http://purl.org/dc/dcmitype/StillImage" />
        <dc:title></dc:title>
      </cc:Work>
    </rdf:RDF>
  </metadata>
  <defs
     id="defs6" />
  <sodipodi:namedview
     pagecolor="#ffffff"
     bordercolor="#666666"
     borderopacity="1"
     objecttolerance="10"
     gridtolerance="10"
     guidetolerance="10"
     inkscape:pageopacity="0"
     inkscape:pageshadow="2"
     inkscape:window-width="1920"
     inkscape:window-height="1001"
     id="namedview4"
     showgrid="false"
     inkscape:zoom="0.52994011"
     inkscape:cx="366.86417"
     inkscape:cy="332.55122"
     inkscape:window-x="-9"
     inkscape:window-y="-9"
     inkscape:window-maximized="1"
     inkscape:current-layer="svg2" />
  <path
     style="fill:#000000;stroke-width:1.33333337"
     d="m 362.25411,888.28963 c -8.03901,-1.2329 -17.93643,-3.60474 -22.33333,-5.352 l -5,-1.98694 v -13.19633 -13.19635 l 11.09497,0.85283 c 13.28781,1.02139 26.78293,-1.05033 35.44964,-5.44208 7.2596,-3.67872 17.26113,-13.93749 21.64901,-22.2058 4.25402,-8.01611 4.27154,-24.01775 0.0436,-39.85606 -2.91517,-10.92062 -62.59469,-198.26481 -63.82676,-200.36311 -0.33256,-0.56638 10.64939,-0.86638 24.40434,-0.66666 l 25.009,0.3631 17.13297,55.33334 c 27.57567,89.05937 31.32499,102.77229 33.72124,123.33333 l 0.93235,8 3.27024,-8.66666 c 15.62768,-41.41584 32.73347,-114.05879 40.18817,-170.66667 l 0.96574,-7.33334 23.64941,-0.36409 c 22.71094,-0.34965 23.64944,-0.26056 23.64944,2.24509 0,1.43507 -2.1377,12.99891 -4.7504,25.69744 -30.67272,149.07907 -73.63394,238.20125 -127.97324,265.478 -11.24806,5.64618 -28.4824,9.34165 -37.27639,7.99296 z m 605.66873,-58.54608 -35.6646,-20.79107 -11.2171,2.22582 c -13.1334,2.6061 -40.8673,2.98075 -54.7866,0.7401 -40.638,-6.5417 -67.323,-29.7903 -80.4905,-70.12536 -7.2195,-22.1152 -9.9618,-42.7906 -10.0651,-75.88614 -0.097,-31.12428 1.2247,-44.61879 6.4721,-66.06871 12.7047,-51.93403 43.6307,-84.41345 89.4164,-93.90793 14.2766,-2.96048 43.0411,-2.96243 57.3334,-0.004 23.436,4.85136 38.7171,13.22524 54.0029,29.5931 20.69176,22.15652 31.59776,55.78747 34.06746,105.05409 3.0459,60.76236 -12.5784,113.98204 -41.83636,142.50368 l -6.6715,6.50368 26.8854,13.27724 c 14.78696,7.30247 27.10036,13.49081 27.36316,13.75187 0.4154,0.41265 -18.2944,33.99552 -18.9111,33.94405 -0.1284,-0.0107 -16.28246,-9.37545 -35.89796,-20.81054 z m -59.6687,-53.8835 c 17.0549,-2.6764 32.4651,-13.50568 41.675,-29.28648 10.5536,-18.08296 15.9846,-47.00345 16.0249,-85.33334 0.041,-39.40926 -4.2486,-66.04625 -13.8607,-86.06348 -6.2153,-12.94324 -19.0669,-25.80336 -29.8392,-29.85887 -18.6174,-7.009 -38.2396,-6.6272 -54.675,1.06384 -20.0641,9.38914 -33.0878,31.64225 -38.6941,66.11507 -4.4119,27.12871 -3.7301,70.62782 1.5446,98.5429 7.3616,38.95935 25.7779,60.52804 55.3546,64.82988 10.3358,1.50331 12.8364,1.50224 22.4699,-0.009 z m -284.6667,34.67088 c -15.6151,-3.28135 -25.1594,-6.76425 -40.6667,-14.84001 -20.0475,-10.44024 -18.9933,-8.32048 -11.5698,-23.2647 3.9416,-7.93478 6.9517,-12.50188 7.9553,-12.07028 26.2118,11.2722 39.8803,15.21123 57.0251,16.43367 35.9538,2.56355 62.042,-14.12579 64.8669,-41.49728 1.4902,-14.43831 -6.4822,-29.52487 -21.6887,-41.04251 -3.6238,-2.74473 -22.7542,-14.14473 -42.5119,-25.33333 -46.8224,-26.51502 -57.0313,-35.69692 -64.8688,-58.34292 -4.003,-11.56619 -4.3725,-36.56316 -0.7194,-48.66667 8.3293,-27.59708 30.9435,-48.09626 61.0098,-55.304 15.0477,-3.60734 41.2137,-3.66378 57.1682,-0.12334 12.4517,2.76315 25.1757,7.25384 35.3806,12.48684 12.5165,6.4184 12.1893,5.37724 5.9518,18.94259 -3.0166,6.56039 -5.696,12.13929 -5.9543,12.39759 -0.2583,0.25829 -6.074,-1.31364 -12.9239,-3.49319 -18.6433,-5.93211 -26.9665,-7.36479 -43.1209,-7.42236 -17.6408,-0.0629 -26.5023,2.28112 -35.8682,9.4876 -3.7859,2.913 -8.2731,8.11317 -10.6667,12.36157 -3.6009,6.39128 -4.1317,8.61795 -4.1317,17.33334 0,12.58735 3.4867,20.29004 13.9265,30.76549 7.6223,7.64836 12.0249,10.39632 61.8393,38.59786 34.1206,19.3168 43.7865,27.44762 51.8929,43.65133 6.41,12.81286 8.1263,21.8815 7.3736,38.96042 -1.2974,29.43605 -15.6659,53.2101 -41.1566,68.09749 -22.9859,13.42451 -58.5186,18.19395 -88.5424,11.88477 z M 0.85285,788.9069 c 4.32571,-103.13253 8.88987,-167.26703 17.43552,-245 1.81394,-16.5 3.60973,-31.35 3.99064,-33 l 0.69257,-3 h 31.06658 31.06659 l 35.73808,109 c 19.65594,59.95 36.13614,109.74596 36.62265,110.6577 0.48652,0.91173 17.32829,-48.13827 37.42616,-109.00001 L 231.4332,507.9069 h 29.68337 29.68336 l 0.74206,4.33333 c 1.36168,7.95168 7.25117,63.89383 10.63312,101 5.56777,61.08888 9.60477,122.14382 11.17448,169.00114 l 0.90452,27.00115 -24.86342,-10e-4 -24.8634,-0.001 -0.76262,-17.66667 c -0.41946,-9.71667 -1.39654,-33.56667 -2.17132,-53 -0.77478,-19.43333 -2.30938,-49.13334 -3.41023,-66 -2.07552,-31.8001 -8.22409,-102.07287 -8.99873,-102.84751 -0.24299,-0.24298 -14.6525,44.09831 -32.02112,98.5362 -17.36863,54.43788 -34.59943,108.42798 -38.29066,119.97798 l -6.71133,21 H 152.93696 133.71264 L 129.7704,796.90718 C 127.60217,790.12385 110.70543,736.87385 92.2221,678.57385 73.73877,620.27385 58.19231,571.79089 57.67441,570.83394 55.26089,566.3743 46.92077,731.59798 46.92077,783.8712 c 0,11.63317 -0.36419,22.10029 -0.80932,23.26026 -0.69404,1.80866 -4.03556,2.10906 -23.46038,2.10906 H 0 Z M 1061.5875,658.57357 V 507.9069 h 24 24 v 132 132 h 47.3333 47.3333 v 18.66667 18.66667 h -71.3333 -71.3333 z m 177.3333,135.33333 v -15.33333 h -5.3333 c -4.4445,0 -5.3334,-0.44444 -5.3334,-2.66667 0,-2.49736 0.8889,-2.66666 14,-2.66666 13.1111,0 14,0.1693 14,2.66666 0,2.15874 -0.8889,2.66667 -4.6666,2.66667 h -4.6667 v 15.33333 15.33334 h -4 -4 z m 26.6667,-3.33333 V 771.9069 h 5.2116 5.2117 l 5.0722,12.81519 c 2.7897,7.04835 5.269,12.29835 5.5095,11.66667 0.2406,-0.6317 2.3629,-6.24852 4.7162,-12.48186 l 4.2788,-11.33333 h 5.3333 5.3333 l 0.371,18.33333 0.371,18.33334 h -3.9894 -3.9893 l -0.3817,-12.87312 -0.3816,-12.87312 -4.6666,12.87214 c -3.9043,10.7692 -5.1295,12.87231 -7.4994,12.87312 -2.3679,8.2e-4 -3.6804,-2.24126 -8,-13.66569 l -5.1673,-13.66667 -0.38,13.66667 c -0.3763,13.5344 -0.4118,13.66667 -3.6666,13.66667 h -3.2867 z m 36.54,-268.16333 c -6.624,-7.38018 -33.3727,-24.87557 -53.2067,-34.80049 -23.6473,-11.83311 -45.0679,-26.49967 -54.6204,-37.39824 -3.3606,-3.8342 -8.2137,-11.10427 -10.7847,-16.15571 -4.3652,-8.57681 -4.5299,-9.34412 -2.4899,-11.59829 3.1115,-3.43812 29.3227,-11.66164 44.4269,-13.9385 7.0408,-1.06134 18.6514,-1.93326 25.8014,-1.93758 7.15,-0.004 13,-0.52606 13,-1.15939 0,-2.56293 -7.886,-8.59747 -35.6039,-27.24485 -28.2663,-19.01624 -29.6291,-19.75494 -49.7294,-26.95408 -11.3667,-4.07111 -23.3667,-8.36919 -26.6667,-9.55128 -9.6079,-3.44164 -15.9261,-11.24255 -26.4303,-32.63257 -12.8579,-26.18314 -33.3576,-70.84898 -40.2959,-87.79904 -16.9393,-41.38217 -50.5154,-85.23656 -89.70636,-117.167 -24.0191,-19.569321 -56.7071,-38.481761 -78.2341,-45.264303 -7.0898,-2.23379 -35.0977,-5.568698 -46.7682,-5.568698 -1.3125,0 -6.4766,-3.300709 -11.4758,-7.334909 -15.6385,-12.619973 -47.1368,-27.331758 -58.518,-27.331758 -4.62,0 -6.7894,0.763509 -9.2986,3.272726 -6.5976,6.597655 -3.1273,16.545865 13.2767,38.059585 21.8648,28.675346 24.2271,33.232166 36.7098,70.811177 10.568,31.81507 17.4578,45.75093 28.3598,57.36303 11.1921,11.92106 11.4258,14.97989 2.9923,39.16015 -9.6612,27.70014 -12.1156,52.16006 -7.9842,79.56799 4.1653,27.63254 16.6908,53.09868 26.1164,53.09868 2.934,0 3.1779,-0.88602 5.3176,-19.32218 1.8527,-15.96359 5.3784,-30.36154 9.3632,-38.23659 3.1713,-6.26731 14.6037,-21.09486 16.2709,-21.10292 0.5658,-0.003 1.5546,1.34502 2.1975,2.99502 12.3647,31.73566 20.5987,48.8141 36.1593,75.00001 13.8061,23.23345 26.9747,41.14373 39.4585,53.66666 6.03116,6.05 10.46236,11 9.84736,11 -1.4711,0 -13.28856,-9.438 -16.69116,-13.33032 -1.4667,-1.67774 -6.2667,-6.01989 -10.6667,-9.64921 -12.9771,-10.70413 -32.4972,-30.41297 -38.6467,-39.02047 -3.1435,-4.4 -9.19,-14.9 -13.4366,-23.33333 l -7.721,-15.33333 -1.663,8.66666 c -0.9146,4.76667 -2.5334,14.11751 -3.5973,20.77963 -2.3826,14.91864 -5.1482,20.97703 -11.3163,24.78911 -5.845,3.61242 -15.1157,3.8615 -21.3953,0.57485 -24.9054,-13.03511 -42.0618,-66.29359 -36.3246,-112.76179 1.5852,-12.83891 9.5201,-46.41152 12.8817,-54.50241 2.0299,-4.88575 1.3218,-7.23846 -3.4793,-11.56098 -10.5689,-9.5153 -27.648,-46.37167 -38.664,-83.43597 -4.1346,-13.91105 -5.704,-16.594081 -24.541,-41.955021 -9.8109,-13.208727 -17.8857,-25.522598 -19.4393,-29.644107 -5.7673,-15.300906 -1.7567,-31.922556 9.6032,-39.7992417 4.826,-3.346243 6.9261,-3.87366501 17.0158,-4.27320201 10.1012,-0.399997 13.0856,0.06658 24.3792,3.81148701 15.0289,4.983466 34.9385,15.6135907 44.7696,23.9033487 7.488,6.313898 12.7721,7.846274 27.5749,7.996537 8.7584,0.08891 30.1652,4.860269 42.7024,9.517964 8.8287,3.279921 28.9367,14.976931 45.2976,26.349944 55.11676,38.313621 100.75266,92.079271 120.63136,142.121101 6.5079,16.38263 18.9186,43.69799 33.3592,73.42208 13.167,27.10251 18.7551,36.66667 21.4236,36.66667 0.7031,0 10.4939,4.11094 21.7573,9.1354 26.2672,11.71746 48.3177,26.06192 78.4067,51.00576 9.6615,8.00944 26.3177,27.03242 26.3863,30.13571 0.052,2.35879 -16.1988,6.80189 -33.5205,9.16475 -8.3109,1.13369 -20.5106,3.52268 -27.1106,5.30886 -6.6,1.78619 -13.3654,3.24804 -15.0343,3.24858 -2.9004,9e-4 -2.9483,0.16712 -1.0863,3.76781 2.9701,5.7436 11.232,12.56395 25.1218,20.73854 14.8554,8.74285 25.8138,16.79772 34.9988,25.72545 12.7577,12.40049 29.6661,31.88763 32.5176,37.477 3.085,6.04716 2.1399,7.38316 -1.9776,2.79549 z M 895.19334,115.68417 c -2.1198,-4.64417 -6.0741,-11.08159 -8.7874,-14.30538 -8.4135,-9.996761 -8.4412,-10.423521 -0.743,-11.482291 5.7373,-0.78908 7.3832,-0.47006 11.4058,2.21079 10.8766,7.24867 12.9445,22.920241 4.0034,30.340661 -1.7341,1.43916 -2.5773,0.46896 -5.8788,-6.76378 z"
     id="path817"
     inkscape:connector-curvature="0" />
</svg>
