<?xml version="1.0" encoding="UTF-8" standalone="no"?>
<!-- Created with Inkscape (http://www.inkscape.org/) -->

<svg
   xmlns:dc="http://purl.org/dc/elements/1.1/"
   xmlns:cc="http://creativecommons.org/ns#"
   xmlns:rdf="http://www.w3.org/1999/02/22-rdf-syntax-ns#"
   xmlns:svg="http://www.w3.org/2000/svg"
   xmlns="http://www.w3.org/2000/svg"
   xmlns:sodipodi="http://sodipodi.sourceforge.net/DTD/sodipodi-0.dtd"
   xmlns:inkscape="http://www.inkscape.org/namespaces/inkscape"
   version="1.1"
   id="svg2"
   width="255.98903"
   height="256.00555"
   viewBox="0 0 255.98903 256.00555"
   sodipodi:docname="Sublime_Text_3_logo.png"
   inkscape:version="0.92.3 (2405546, 2018-03-11)">
  <metadata
     id="metadata8">
    <rdf:RDF>
      <cc:Work
         rdf:about="">
        <dc:format>image/svg+xml</dc:format>
        <dc:type
           rdf:resource="http://purl.org/dc/dcmitype/StillImage" />
        <dc:title></dc:title>
      </cc:Work>
    </rdf:RDF>
  </metadata>
  <defs
     id="defs6" />
  <sodipodi:namedview
     pagecolor="#ffffff"
     bordercolor="#666666"
     borderopacity="1"
     objecttolerance="10"
     gridtolerance="10"
     guidetolerance="10"
     inkscape:pageopacity="0"
     inkscape:pageshadow="2"
     inkscape:window-width="1920"
     inkscape:window-height="1001"
     id="namedview4"
     showgrid="false"
     inkscape:zoom="0.921875"
     inkscape:cx="109.55384"
     inkscape:cy="129.04082"
     inkscape:window-x="-9"
     inkscape:window-y="-9"
     inkscape:window-maximized="1"
     inkscape:current-layer="svg2" />
  <path
     style="fill:#000000"
     d="M 10.494514,254.16874 C 5.7366936,251.98394 3.6045936,249.75385 1.5326536,244.79499 0.17934359,241.55606 -0.00481641,227.62151 9.3587596e-5,128.8316 0.00409359,50.411013 0.33664359,15.35732 1.1031636,12.5964 2.5066036,7.54138 7.4864236,2.56156 12.541434,1.15812 c 5.56192,-1.54416 225.344246,-1.54416 230.906166,0 5.05501,1.40344 10.03483,6.38326 11.43827,11.43828 0.76652,2.76092 1.09918,37.814613 1.10307,116.2352 0.005,98.78991 -0.17925,112.72446 -1.53256,115.96339 -2.07194,4.95886 -4.20404,7.18895 -8.96186,9.37375 -3.80688,1.74812 -9.4798,1.83681 -117.5,1.83681 -108.020206,0 -113.693126,-0.0887 -117.500006,-1.83681 z M 124.18685,201.61081 c 35.36922,-11.24127 66.31033,-21.15312 68.75802,-22.02633 8.3836,-2.99084 8.04965,-1.80061 8.04965,-28.68999 0,-21.44646 -0.17731,-24.02104 -1.7627,-25.59501 -0.96949,-0.9625 -14.68724,-5.8 -30.48389,-10.75 -15.79665,-4.95 -28.72844,-9.26091 -28.7373,-9.5798 -0.009,-0.31889 12.69639,-4.59389 28.23389,-9.500011 19.09357,-6.02897 28.97927,-9.634737 30.5,-11.124742 2.20655,-2.161972 2.25,-2.656892 2.25,-25.627556 0,-17.525683 -0.31472,-23.680791 -1.25,-24.446868 -1.69447,-1.387916 -141.651556,42.923848 -143.482626,45.427983 -0.9389,1.284017 -1.26738,7.885289 -1.26738,25.469544 0,23.67178 0.006,23.74124 2.33097,25.55887 1.28204,1.00242 15.23095,5.87258 30.997582,10.82258 15.766644,4.95 28.667704,9.24838 28.669034,9.55195 0.001,0.30358 -12.93508,4.57122 -28.747584,9.48366 -19.868202,6.17242 -29.445102,9.61782 -31.000002,11.1526 -2.20584,2.17729 -2.25,2.67971 -2.25,25.59967 0,12.85833 0.3,23.67878 0.66667,24.04544 0.36666,0.36667 1.46571,0.66667 2.44233,0.66667 0.97661,0 30.714112,-9.19739 66.083336,-20.43866 z"
     id="path817"
     inkscape:connector-curvature="0" />
</svg>
