<?xml version="1.0" encoding="UTF-8" standalone="no"?>
<!-- Created with Inkscape (http://www.inkscape.org/) -->

<svg
   xmlns:dc="http://purl.org/dc/elements/1.1/"
   xmlns:cc="http://creativecommons.org/ns#"
   xmlns:rdf="http://www.w3.org/1999/02/22-rdf-syntax-ns#"
   xmlns:svg="http://www.w3.org/2000/svg"
   xmlns="http://www.w3.org/2000/svg"
   xmlns:sodipodi="http://sodipodi.sourceforge.net/DTD/sodipodi-0.dtd"
   xmlns:inkscape="http://www.inkscape.org/namespaces/inkscape"
   version="1.1"
   id="svg2"
   width="1010.7032"
   height="1017.9195"
   viewBox="0 0 1010.7032 1017.9195"
   sodipodi:docname="vscode.svg"
   inkscape:version="0.92.3 (2405546, 2018-03-11)">
  <metadata
     id="metadata8">
    <rdf:RDF>
      <cc:Work
         rdf:about="">
        <dc:format>image/svg+xml</dc:format>
        <dc:type
           rdf:resource="http://purl.org/dc/dcmitype/StillImage" />
        <dc:title></dc:title>
      </cc:Work>
    </rdf:RDF>
  </metadata>
  <defs
     id="defs6" />
  <sodipodi:namedview
     pagecolor="#ffffff"
     bordercolor="#666666"
     borderopacity="1"
     objecttolerance="10"
     gridtolerance="10"
     guidetolerance="10"
     inkscape:pageopacity="0"
     inkscape:pageshadow="2"
     inkscape:window-width="1920"
     inkscape:window-height="1001"
     id="namedview4"
     showgrid="false"
     inkscape:zoom="0.23137255"
     inkscape:cx="-1006.6866"
     inkscape:cy="-502.43644"
     inkscape:window-x="-9"
     inkscape:window-y="-9"
     inkscape:window-maximized="1"
     inkscape:current-layer="svg2" />
  <path
     style="fill:#000000"
     d="M 376.97309,890.73282 C 169.49649,820.82457 -0.14131167,763.51118 8.8332893e-5,763.36974 0.14158833,763.2283 169.67009,788.28122 376.73029,819.04289 c 207.0601,30.76167 377.2604,55.93634 378.2229,55.9437 1.664,0.0127 1.75,-21.48152 1.75,-437.48662 0,-240.625 0.2584,-437.49997 0.5743,-437.49997 0.4685,0 232.618,96.35766 248.67571,103.21716 l 4.75,2.0291 v 403.76987 c 0,322.08362 -0.2529,403.87061 -1.25,404.26786 -0.6875,0.2739 -57.60581,23.94705 -126.48511,52.60699 -68.8793,28.65995 -126.0293,52.07272 -127,52.02842 -0.9707,-0.044 -171.5184,-57.27833 -378.995,-127.18658 z m -4.7364,-285.29596 c -64.2739,-63.49029 -117.2544,-115.43689 -117.7343,-115.43689 -0.4799,0 -32.4434,23.79092 -71.0301,52.86871 l -70.1574,52.86871 -28.394502,-9.61871 -28.3945,-9.61871 71.240102,-70.5458 c 39.182,-38.80019 71.0594,-70.98974 70.8386,-71.53233 -0.2207,-0.54258 -32.2327,-32.44066 -71.1376,-70.88461 -38.905002,-38.44395 -70.578102,-70.05624 -70.384802,-70.24954 0.1933,-0.1933 12.9869,-4.56912 28.4303,-9.72405 l 28.078802,-9.3726 70.2397,52.92654 c 38.6319,29.1096 70.5925,52.80411 71.0237,52.65447 0.4312,-0.14965 49.9339,-48.87208 110.006,-108.27208 60.0721,-59.4 112.6933,-111.2685 116.936,-115.26333 l 7.714,-7.26334 69.3463,29.46965 69.3462,29.46965 0.2522,226.83328 0.2521,226.83329 -69.2521,29.36613 c -38.0887,16.15138 -69.5008,29.49266 -69.8046,29.6473 -0.3038,0.15464 -53.1401,-51.66544 -117.4141,-115.15574 z m 117.4665,-170.93689 c 0,-66.825 -0.2297,-121.5 -0.5104,-121.5 -1.1638,0 -161.5213,121.39816 -161.2669,122.0867 0.4648,1.25846 159.1875,120.72032 160.5273,120.82016 0.9937,0.074 1.25,-24.82385 1.25,-121.40686 z"
     id="path817"
     inkscape:connector-curvature="0" />
</svg>
