<?xml version="1.0" encoding="UTF-8" standalone="no"?>
<!-- Generator: Adobe Illustrator 16.2.1, SVG Export Plug-In . SVG Version: 6.00 Build 0)  -->

<svg
   xmlns:dc="http://purl.org/dc/elements/1.1/"
   xmlns:cc="http://creativecommons.org/ns#"
   xmlns:rdf="http://www.w3.org/1999/02/22-rdf-syntax-ns#"
   xmlns:svg="http://www.w3.org/2000/svg"
   xmlns="http://www.w3.org/2000/svg"
   xmlns:sodipodi="http://sodipodi.sourceforge.net/DTD/sodipodi-0.dtd"
   xmlns:inkscape="http://www.inkscape.org/namespaces/inkscape"
   version="1.1"
   id="Layer_1"
   x="0px"
   y="0px"
   width="416"
   height="416"
   viewBox="0 0 416 416"
   xml:space="preserve"
   sodipodi:docname="name.svg"
   inkscape:export-filename="C:\Users\Stagiaire\Desktop\Site\Site en cours\img\name.png"
   inkscape:export-xdpi="96"
   inkscape:export-ydpi="96"
   inkscape:version="0.92.3 (2405546, 2018-03-11)"><metadata
   id="metadata9"><rdf:RDF><cc:Work
       rdf:about=""><dc:format>image/svg+xml</dc:format><dc:type
         rdf:resource="http://purl.org/dc/dcmitype/StillImage" /></cc:Work></rdf:RDF></metadata><defs
   id="defs7" /><sodipodi:namedview
   pagecolor="#ffffff"
   bordercolor="#666666"
   borderopacity="1"
   objecttolerance="10"
   gridtolerance="10"
   guidetolerance="10"
   inkscape:pageopacity="0"
   inkscape:pageshadow="2"
   inkscape:window-width="1920"
   inkscape:window-height="1001"
   id="namedview5"
   showgrid="false"
   inkscape:zoom="0.65186406"
   inkscape:cx="-529.14469"
   inkscape:cy="306.32572"
   inkscape:window-x="-9"
   inkscape:window-y="-9"
   inkscape:window-maximized="1"
   inkscape:current-layer="Layer_1" />
<path
   d="M 207.33567,-0.13160176 C 92.810173,-0.13160176 0.49302223,94.592205 0.49302223,208.89299 0.49302223,323.19377 94.152477,416 208.67797,416 323.20345,416 416,323.38553 416,209.08475 416,94.783963 321.86115,-0.13160176 207.33567,-0.13160176 Z m 1.3423,398.92182176 c -58.409,0 -110.737879,-26.46128 -145.623798,-67.94381 17.741982,-7.65984 61.997258,-23.5764 90.005668,-31.73363 2.19283,-0.69635 2.59153,-0.79583 2.59153,-10.6442 0,-10.54472 -1.19609,-18.00561 -3.78762,-23.47692 -3.48859,-7.46089 -7.67489,-20.09466 -9.17001,-31.43521 -4.1863,-4.87444 -9.86772,-14.42438 -13.55567,-32.72842 -3.18957,-16.11551 -1.69446,-21.98474 0.3987,-27.45606 0.19935,-0.59687 0.49837,-1.19374 0.59804,-1.79061 0.7974,-3.68071 -0.29902,-23.37745 -3.08989,-38.59766 -1.89381,-10.44524 0.49837,-32.62894 14.95111,-51.032461 9.07033,-11.638983 26.51329,-25.864407 57.81094,-27.853977 h 17.44296 c 31.79603,1.98957 49.23898,16.214994 58.30933,27.853977 14.45274,18.403521 16.84491,40.587221 14.85143,51.032461 -2.79087,15.22021 -3.88728,34.81747 -3.08989,38.59766 0.0996,0.59687 0.39869,1.19374 0.59804,1.69113 2.09316,5.47132 3.68794,11.34055 0.3987,27.45606 -3.68794,18.30404 -9.36936,27.85398 -13.55568,32.72843 -1.49511,11.34054 -5.68142,23.87483 -9.17001,31.4352 -3.28924,6.86401 -6.57849,15.02125 -6.57849,23.17848 0,9.84838 0.3987,9.94785 2.6912,10.6442 26.61298,7.8588 72.46304,23.67588 92.69687,31.9326 -34.88591,41.58201 -87.21479,68.14276 -145.72346,68.14276 z"
   id="path2"
   inkscape:connector-curvature="0"
   style="stroke-width:0.99576217"
   sodipodi:nodetypes="ssssssccsccccccccccccccccsccs" />
</svg>